<svg width="280" height="21" viewBox="0 0 280 21" fill="none" xmlns="http://www.w3.org/2000/svg">
<path d="M0.26 1.3H3.494V7.915L9.164 1.3H13.07L7.19 7.978V8.398L13.301 16H9.206L3.494 8.713V16H0.26V1.3ZM19.6496 5.626C20.9796 5.626 22.0576 5.948 22.8836 6.592C23.7236 7.236 24.1436 8.202 24.1436 9.49V16H20.9936V15.37H20.5736C20.2656 15.636 19.8736 15.846 19.3976 16C18.9356 16.168 18.4316 16.252 17.8856 16.252C16.8356 16.252 15.9746 15.972 15.3026 15.412C14.6446 14.852 14.3156 14.089 14.3156 13.123C14.3156 12.171 14.6656 11.401 15.3656 10.813C16.0656 10.225 17.0456 9.931 18.3056 9.931H20.9936V9.679C20.9936 9.273 20.8746 8.958 20.6366 8.734C20.3986 8.51 20.0556 8.398 19.6076 8.398C19.2436 8.398 18.9286 8.475 18.6626 8.629C18.4106 8.769 18.2496 8.972 18.1796 9.238H14.7776C14.8896 8.16 15.3796 7.292 16.2476 6.634C17.1156 5.962 18.2496 5.626 19.6496 5.626ZM18.7466 13.753C19.6286 13.753 20.3776 13.396 20.9936 12.682V11.989H18.7256C18.3476 11.989 18.0536 12.066 17.8436 12.22C17.6336 12.36 17.5286 12.577 17.5286 12.871C17.5286 13.151 17.6406 13.368 17.8646 13.522C18.0886 13.676 18.3826 13.753 18.7466 13.753ZM30.4834 16.252C29.0274 16.252 27.8864 15.916 27.0604 15.244C26.2344 14.558 25.7934 13.69 25.7374 12.64H28.9084C28.9504 12.934 29.1184 13.179 29.4124 13.375C29.7204 13.557 30.1124 13.648 30.5884 13.648C31.0644 13.648 31.4284 13.578 31.6804 13.438C31.9464 13.284 32.0794 13.081 32.0794 12.829C32.0794 12.619 32.0094 12.465 31.8694 12.367C31.7294 12.269 31.4774 12.199 31.1134 12.157L29.1394 11.926C27.0254 11.688 25.9684 10.722 25.9684 9.028C25.9684 8.384 26.1434 7.803 26.4934 7.285C26.8574 6.767 27.3754 6.361 28.0474 6.067C28.7334 5.773 29.5454 5.626 30.4834 5.626C31.8694 5.626 32.9264 5.92 33.6544 6.508C34.3824 7.082 34.7814 7.866 34.8514 8.86H31.8694C31.8414 8.65 31.6944 8.475 31.4284 8.335C31.1624 8.195 30.8264 8.125 30.4204 8.125C30.0144 8.125 29.6924 8.195 29.4544 8.335C29.2304 8.461 29.1184 8.636 29.1184 8.86C29.1184 9.07 29.2234 9.238 29.4334 9.364C29.6434 9.476 30.0074 9.56 30.5254 9.616L32.2894 9.805C33.2554 9.903 33.9904 10.183 34.4944 10.645C34.9984 11.093 35.2504 11.765 35.2504 12.661C35.2504 13.767 34.8304 14.642 33.9904 15.286C33.1504 15.93 31.9814 16.252 30.4834 16.252ZM37.1711 5.878H40.3211V7.075H40.7411C41.0071 6.571 41.3781 6.207 41.8541 5.983C42.3441 5.745 42.8901 5.626 43.4921 5.626C44.3321 5.626 45.0951 5.836 45.7811 6.256C46.4671 6.676 47.0061 7.278 47.3981 8.062C47.8041 8.846 48.0071 9.763 48.0071 10.813C48.0071 11.961 47.7901 12.948 47.3561 13.774C46.9361 14.586 46.3691 15.202 45.6551 15.622C44.9551 16.042 44.1921 16.252 43.3661 16.252C42.8201 16.252 42.2741 16.147 41.7281 15.937C41.1821 15.727 40.7131 15.384 40.3211 14.908V20.62H37.1711V5.878ZM42.5681 13.375C43.1981 13.375 43.7301 13.172 44.1641 12.766C44.5981 12.36 44.8151 11.751 44.8151 10.939C44.8151 10.127 44.5981 9.518 44.1641 9.112C43.7301 8.706 43.1981 8.503 42.5681 8.503C41.9381 8.503 41.4061 8.706 40.9721 9.112C40.5381 9.518 40.3211 10.127 40.3211 10.939C40.3211 11.751 40.5381 12.36 40.9721 12.766C41.4061 13.172 41.9381 13.375 42.5681 13.375ZM54.7785 16.252C53.7705 16.252 52.8675 16.028 52.0695 15.58C51.2715 15.118 50.6485 14.481 50.2005 13.669C49.7525 12.857 49.5285 11.947 49.5285 10.939C49.5285 9.931 49.7455 9.028 50.1795 8.23C50.6275 7.418 51.2505 6.781 52.0485 6.319C52.8465 5.857 53.7635 5.626 54.7995 5.626C55.7655 5.626 56.6265 5.836 57.3825 6.256C58.1385 6.662 58.7265 7.243 59.1465 7.999C59.5805 8.741 59.7975 9.588 59.7975 10.54V11.758H52.6785C52.8045 12.346 53.0495 12.787 53.4135 13.081C53.7915 13.375 54.2325 13.522 54.7365 13.522C55.1425 13.522 55.4995 13.445 55.8075 13.291C56.1155 13.123 56.3325 12.906 56.4585 12.64H59.5665C59.2865 13.704 58.7125 14.572 57.8445 15.244C56.9905 15.916 55.9685 16.252 54.7785 16.252ZM56.7735 9.616C56.7035 9.182 56.4935 8.832 56.1435 8.566C55.7935 8.286 55.3525 8.146 54.8205 8.146C54.3445 8.146 53.9315 8.272 53.5815 8.524C53.2315 8.776 52.9655 9.14 52.7835 9.616H56.7735ZM61.5519 5.878H64.7019V7.096H65.1219C65.2619 6.676 65.5139 6.347 65.8779 6.109C66.2559 5.857 66.7389 5.731 67.3269 5.731H68.7549V8.86H67.1169C66.2769 8.86 65.6609 9.077 65.2689 9.511C64.8909 9.945 64.7019 10.589 64.7019 11.443V16H61.5519V5.878ZM74.6368 16.252C73.1808 16.252 72.0398 15.916 71.2138 15.244C70.3878 14.558 69.9468 13.69 69.8908 12.64H73.0618C73.1038 12.934 73.2718 13.179 73.5658 13.375C73.8738 13.557 74.2658 13.648 74.7418 13.648C75.2178 13.648 75.5818 13.578 75.8338 13.438C76.0998 13.284 76.2328 13.081 76.2328 12.829C76.2328 12.619 76.1628 12.465 76.0228 12.367C75.8828 12.269 75.6308 12.199 75.2668 12.157L73.2928 11.926C71.1788 11.688 70.1218 10.722 70.1218 9.028C70.1218 8.384 70.2968 7.803 70.6468 7.285C71.0108 6.767 71.5288 6.361 72.2008 6.067C72.8868 5.773 73.6988 5.626 74.6368 5.626C76.0228 5.626 77.0798 5.92 77.8078 6.508C78.5358 7.082 78.9348 7.866 79.0048 8.86H76.0228C75.9948 8.65 75.8478 8.475 75.5818 8.335C75.3158 8.195 74.9798 8.125 74.5738 8.125C74.1678 8.125 73.8458 8.195 73.6078 8.335C73.3838 8.461 73.2718 8.636 73.2718 8.86C73.2718 9.07 73.3768 9.238 73.5868 9.364C73.7968 9.476 74.1608 9.56 74.6788 9.616L76.4428 9.805C77.4088 9.903 78.1438 10.183 78.6478 10.645C79.1518 11.093 79.4038 11.765 79.4038 12.661C79.4038 13.767 78.9838 14.642 78.1438 15.286C77.3038 15.93 76.1348 16.252 74.6368 16.252ZM87.7084 16L84.4744 11.338V16H81.3244V0.879999H84.4744V10.246L87.5614 5.878H91.2784L87.7924 10.603V11.023L91.5094 16H87.7084ZM96.3119 15.181L92.0489 5.878H95.5979L96.9629 8.881C97.3129 9.595 97.5999 10.351 97.8239 11.149H98.2439C98.4959 10.281 98.7759 9.525 99.0839 8.881L100.491 5.878H104.019L97.3199 20.62H93.7499L96.3119 15.181ZM110.1 1.3H113.334V16H110.1V1.3ZM115.611 5.878H118.761V6.991H119.181C119.419 6.613 119.776 6.291 120.252 6.025C120.742 5.759 121.344 5.626 122.058 5.626C123.08 5.626 123.948 5.92 124.662 6.508C125.376 7.096 125.733 8.09 125.733 9.49V16H122.583V10.603C122.583 9.959 122.422 9.49 122.1 9.196C121.792 8.902 121.365 8.755 120.819 8.755C120.175 8.755 119.671 8.965 119.307 9.385C118.943 9.791 118.761 10.4 118.761 11.212V16H115.611V5.878ZM132.793 16C130.273 16 129.013 14.726 129.013 12.178V8.755H127.123V5.878H129.013V3.148H132.163V5.878H135.166V8.755H132.163V11.8C132.163 12.612 132.583 13.018 133.423 13.018H134.956V16H132.793ZM141.773 16.252C140.765 16.252 139.862 16.028 139.064 15.58C138.266 15.118 137.643 14.481 137.195 13.669C136.747 12.857 136.523 11.947 136.523 10.939C136.523 9.931 136.74 9.028 137.174 8.23C137.622 7.418 138.245 6.781 139.043 6.319C139.841 5.857 140.758 5.626 141.794 5.626C142.76 5.626 143.621 5.836 144.377 6.256C145.133 6.662 145.721 7.243 146.141 7.999C146.575 8.741 146.792 9.588 146.792 10.54V11.758H139.673C139.799 12.346 140.044 12.787 140.408 13.081C140.786 13.375 141.227 13.522 141.731 13.522C142.137 13.522 142.494 13.445 142.802 13.291C143.11 13.123 143.327 12.906 143.453 12.64H146.561C146.281 13.704 145.707 14.572 144.839 15.244C143.985 15.916 142.963 16.252 141.773 16.252ZM143.768 9.616C143.698 9.182 143.488 8.832 143.138 8.566C142.788 8.286 142.347 8.146 141.815 8.146C141.339 8.146 140.926 8.272 140.576 8.524C140.226 8.776 139.96 9.14 139.778 9.616H143.768ZM148.546 5.878H151.696V7.096H152.116C152.256 6.676 152.508 6.347 152.872 6.109C153.25 5.857 153.733 5.731 154.321 5.731H155.749V8.86H154.111C153.271 8.86 152.655 9.077 152.263 9.511C151.885 9.945 151.696 10.589 151.696 11.443V16H148.546V5.878ZM157.221 5.878H160.371V6.991H160.791C161.029 6.613 161.386 6.291 161.862 6.025C162.352 5.759 162.954 5.626 163.668 5.626C164.69 5.626 165.558 5.92 166.272 6.508C166.986 7.096 167.343 8.09 167.343 9.49V16H164.193V10.603C164.193 9.959 164.032 9.49 163.71 9.196C163.402 8.902 162.975 8.755 162.429 8.755C161.785 8.755 161.281 8.965 160.917 9.385C160.553 9.791 160.371 10.4 160.371 11.212V16H157.221V5.878ZM174.277 16.252C173.269 16.252 172.366 16.028 171.568 15.58C170.77 15.118 170.147 14.481 169.699 13.669C169.251 12.857 169.027 11.947 169.027 10.939C169.027 9.931 169.244 9.028 169.678 8.23C170.126 7.418 170.749 6.781 171.547 6.319C172.345 5.857 173.262 5.626 174.298 5.626C175.264 5.626 176.125 5.836 176.881 6.256C177.637 6.662 178.225 7.243 178.645 7.999C179.079 8.741 179.296 9.588 179.296 10.54V11.758H172.177C172.303 12.346 172.548 12.787 172.912 13.081C173.29 13.375 173.731 13.522 174.235 13.522C174.641 13.522 174.998 13.445 175.306 13.291C175.614 13.123 175.831 12.906 175.957 12.64H179.065C178.785 13.704 178.211 14.572 177.343 15.244C176.489 15.916 175.467 16.252 174.277 16.252ZM176.272 9.616C176.202 9.182 175.992 8.832 175.642 8.566C175.292 8.286 174.851 8.146 174.319 8.146C173.843 8.146 173.43 8.272 173.08 8.524C172.73 8.776 172.464 9.14 172.282 9.616H176.272ZM186.175 16C183.655 16 182.395 14.726 182.395 12.178V8.755H180.505V5.878H182.395V3.148H185.545V5.878H188.548V8.755H185.545V11.8C185.545 12.612 185.965 13.018 186.805 13.018H188.338V16H186.175ZM201.187 16.252C199.997 16.252 198.94 16.042 198.016 15.622C197.106 15.202 196.392 14.607 195.874 13.837C195.356 13.067 195.083 12.171 195.055 11.149H198.415C198.485 11.779 198.772 12.29 199.276 12.682C199.78 13.074 200.459 13.27 201.313 13.27C202.055 13.27 202.636 13.123 203.056 12.829C203.476 12.535 203.686 12.122 203.686 11.59C203.686 11.128 203.539 10.764 203.245 10.498C202.951 10.232 202.552 10.078 202.048 10.036L200.179 9.868C198.751 9.742 197.61 9.322 196.756 8.608C195.916 7.894 195.496 6.921 195.496 5.689C195.496 4.807 195.713 4.016 196.147 3.316C196.595 2.616 197.232 2.063 198.058 1.657C198.884 1.251 199.857 1.048 200.977 1.048C202.643 1.048 203.973 1.468 204.967 2.308C205.961 3.148 206.514 4.261 206.626 5.647H203.266C203.168 5.143 202.916 4.758 202.51 4.492C202.104 4.212 201.565 4.072 200.893 4.072C200.207 4.072 199.675 4.205 199.297 4.471C198.933 4.723 198.751 5.052 198.751 5.458C198.751 5.906 198.94 6.235 199.318 6.445C199.696 6.641 200.214 6.767 200.872 6.823L202.783 6.991C204.085 7.103 205.107 7.551 205.849 8.335C206.605 9.105 206.983 10.113 206.983 11.359C206.983 12.367 206.738 13.242 206.248 13.984C205.758 14.726 205.072 15.293 204.19 15.685C203.308 16.063 202.307 16.252 201.187 16.252ZM213.96 16.252C212.952 16.252 212.049 16.028 211.251 15.58C210.453 15.118 209.83 14.481 209.382 13.669C208.934 12.857 208.71 11.947 208.71 10.939C208.71 9.931 208.927 9.028 209.361 8.23C209.809 7.418 210.432 6.781 211.23 6.319C212.028 5.857 212.945 5.626 213.981 5.626C214.947 5.626 215.808 5.836 216.564 6.256C217.32 6.662 217.908 7.243 218.328 7.999C218.762 8.741 218.979 9.588 218.979 10.54V11.758H211.86C211.986 12.346 212.231 12.787 212.595 13.081C212.973 13.375 213.414 13.522 213.918 13.522C214.324 13.522 214.681 13.445 214.989 13.291C215.297 13.123 215.514 12.906 215.64 12.64H218.748C218.468 13.704 217.894 14.572 217.026 15.244C216.172 15.916 215.15 16.252 213.96 16.252ZM215.955 9.616C215.885 9.182 215.675 8.832 215.325 8.566C214.975 8.286 214.534 8.146 214.002 8.146C213.526 8.146 213.113 8.272 212.763 8.524C212.413 8.776 212.147 9.14 211.965 9.616H215.955ZM225.69 16.252C224.696 16.252 223.8 16.028 223.002 15.58C222.218 15.118 221.602 14.481 221.154 13.669C220.706 12.857 220.482 11.947 220.482 10.939C220.482 9.931 220.706 9.021 221.154 8.209C221.602 7.397 222.218 6.767 223.002 6.319C223.8 5.857 224.696 5.626 225.69 5.626C226.516 5.626 227.279 5.794 227.979 6.13C228.679 6.452 229.253 6.921 229.701 7.537C230.163 8.139 230.45 8.846 230.562 9.658H227.454C227.328 9.21 227.104 8.881 226.782 8.671C226.474 8.461 226.096 8.356 225.648 8.356C225.046 8.356 224.542 8.58 224.136 9.028C223.744 9.476 223.548 10.113 223.548 10.939C223.548 11.765 223.744 12.402 224.136 12.85C224.542 13.298 225.046 13.522 225.648 13.522C226.096 13.522 226.474 13.417 226.782 13.207C227.104 12.997 227.328 12.668 227.454 12.22H230.562C230.45 13.032 230.163 13.746 229.701 14.362C229.253 14.964 228.679 15.433 227.979 15.769C227.279 16.091 226.516 16.252 225.69 16.252ZM235.953 16.252C234.931 16.252 234.063 15.958 233.349 15.37C232.635 14.782 232.278 13.788 232.278 12.388V5.878H235.428V11.275C235.428 11.919 235.582 12.388 235.89 12.682C236.212 12.976 236.646 13.123 237.192 13.123C237.836 13.123 238.34 12.92 238.704 12.514C239.068 12.094 239.25 11.478 239.25 10.666V5.878H242.4V16H239.25V14.887H238.83C238.592 15.265 238.228 15.587 237.738 15.853C237.262 16.119 236.667 16.252 235.953 16.252ZM244.42 5.878H247.57V7.096H247.99C248.13 6.676 248.382 6.347 248.746 6.109C249.124 5.857 249.607 5.731 250.195 5.731H251.623V8.86H249.985C249.145 8.86 248.529 9.077 248.137 9.511C247.759 9.945 247.57 10.589 247.57 11.443V16H244.42V5.878ZM253.179 0.879999H256.497V4.198H253.179V0.879999ZM253.263 5.878H256.413V16H253.263V5.878ZM263.715 16C261.195 16 259.935 14.726 259.935 12.178V8.755H258.045V5.878H259.935V3.148H263.085V5.878H266.088V8.755H263.085V11.8C263.085 12.612 263.505 13.018 264.345 13.018H265.878V16H263.715ZM271.572 15.181L267.309 5.878H270.858L272.223 8.881C272.573 9.595 272.86 10.351 273.084 11.149H273.504C273.756 10.281 274.036 9.525 274.344 8.881L275.751 5.878H279.279L272.58 20.62H269.01L271.572 15.181Z" fill="#1D1D1B"/>
</svg>
